<svg width="300" height="300" viewBox="0 0 150 150" fill="none" xmlns="http://www.w3.org/2000/svg">
<circle cx="75" cy="75" r="75" fill="#326789"/>
<circle cx="75" cy="75" r="60" fill="#E65C4F"/>
<circle cx="75" cy="75" r="45" fill="#78A6C8"/>
<circle cx="75" cy="75" r="30" fill="#E9EEF2"/>
<path d="M79.3097 66.2756C79.196 65.1297 78.7083 64.2396 77.8466 63.6051C76.9848 62.9706 75.8153 62.6534 74.3381 62.6534C73.3343 62.6534 72.4867 62.7955 71.7955 63.0795C71.1042 63.3542 70.5739 63.7377 70.2045 64.2301C69.8447 64.7225 69.6648 65.2812 69.6648 65.9062C69.6458 66.4271 69.7547 66.8816 69.9915 67.2699C70.2377 67.6581 70.5739 67.9943 71 68.2784C71.4261 68.553 71.9186 68.7945 72.4773 69.0028C73.036 69.2017 73.6326 69.3722 74.267 69.5142L76.8807 70.1392C78.1496 70.4233 79.3144 70.8021 80.375 71.2756C81.4356 71.7491 82.3542 72.3314 83.1307 73.0227C83.9072 73.714 84.5085 74.5284 84.9347 75.4659C85.3703 76.4034 85.5928 77.4782 85.6023 78.6903C85.5928 80.4706 85.1383 82.0142 84.2386 83.321C83.3485 84.6184 82.0606 85.6269 80.375 86.3466C78.6989 87.0568 76.6771 87.4119 74.3097 87.4119C71.9612 87.4119 69.9157 87.0521 68.1733 86.3324C66.4403 85.6127 65.0862 84.5473 64.1108 83.1364C63.1449 81.7159 62.6383 79.9593 62.5909 77.8665H68.5426C68.6089 78.8419 68.8883 79.6562 69.3807 80.3097C69.8826 80.9536 70.5502 81.4413 71.3835 81.7727C72.2263 82.0947 73.178 82.2557 74.2386 82.2557C75.2803 82.2557 76.1847 82.1042 76.9517 81.8011C77.7282 81.4981 78.3295 81.0767 78.7557 80.5369C79.1818 79.9972 79.3949 79.3769 79.3949 78.6761C79.3949 78.0227 79.2008 77.4735 78.8125 77.0284C78.4337 76.5833 77.875 76.2045 77.1364 75.892C76.4072 75.5795 75.5123 75.2955 74.4517 75.0398L71.2841 74.2443C68.8314 73.6477 66.8949 72.715 65.4744 71.446C64.054 70.1771 63.3485 68.4678 63.358 66.3182C63.3485 64.5568 63.8172 63.018 64.7642 61.7017C65.7206 60.3854 67.0322 59.358 68.6989 58.6193C70.3655 57.8807 72.2595 57.5114 74.3807 57.5114C76.5398 57.5114 78.4242 57.8807 80.0341 58.6193C81.6534 59.358 82.9129 60.3854 83.8125 61.7017C84.7121 63.018 85.1761 64.5426 85.2045 66.2756H79.3097Z" fill="black"/>
</svg>
