<svg width="150" height="150" viewBox="0 0 150 150" fill="none" xmlns="http://www.w3.org/2000/svg">
<rect x="5" y="5" width="140" height="140" stroke="black" stroke-width="10"/>
<path d="M83.0275 96C83.0275 93.875 82.6942 92 82.0275 90.375C81.4025 88.7083 80.2775 87.2083 78.6525 85.875C77.0692 84.5417 74.8608 83.2708 72.0275 82.0625C69.2358 80.8542 65.6942 79.625 61.4025 78.375C56.9025 77.0417 52.84 75.5625 49.215 73.9375C45.59 72.2708 42.4858 70.375 39.9025 68.25C37.3192 66.125 35.34 63.6875 33.965 60.9375C32.59 58.1875 31.9025 55.0417 31.9025 51.5C31.9025 47.9583 32.6317 44.6875 34.09 41.6875C35.5483 38.6875 37.6317 36.0833 40.34 33.875C43.09 31.625 46.3608 29.875 50.1525 28.625C53.9442 27.375 58.1733 26.75 62.84 26.75C69.6733 26.75 75.465 28.0625 80.215 30.6875C85.0067 33.2708 88.6525 36.6667 91.1525 40.875C93.6525 45.0417 94.9025 49.5 94.9025 54.25H82.9025C82.9025 50.8333 82.1733 47.8125 80.715 45.1875C79.2567 42.5208 77.0483 40.4375 74.09 38.9375C71.1317 37.3958 67.3817 36.625 62.84 36.625C58.5483 36.625 55.0067 37.2708 52.215 38.5625C49.4233 39.8542 47.34 41.6042 45.965 43.8125C44.6317 46.0208 43.965 48.5417 43.965 51.375C43.965 53.2917 44.3608 55.0417 45.1525 56.625C45.9858 58.1667 47.2567 59.6042 48.965 60.9375C50.715 62.2708 52.9233 63.5 55.59 64.625C58.2983 65.75 61.5275 66.8333 65.2775 67.875C70.4442 69.3333 74.9025 70.9583 78.6525 72.75C82.4025 74.5417 85.4858 76.5625 87.9025 78.8125C90.3608 81.0208 92.1733 83.5417 93.34 86.375C94.5483 89.1667 95.1525 92.3333 95.1525 95.875C95.1525 99.5833 94.4025 102.938 92.9025 105.938C91.4025 108.938 89.2567 111.5 86.465 113.625C83.6733 115.75 80.3192 117.396 76.4025 118.562C72.5275 119.688 68.1942 120.25 63.4025 120.25C59.1942 120.25 55.0483 119.667 50.965 118.5C46.9233 117.333 43.2358 115.583 39.9025 113.25C36.6108 110.917 33.965 108.042 31.965 104.625C30.0067 101.167 29.0275 97.1667 29.0275 92.625H41.0275C41.0275 95.75 41.6317 98.4375 42.84 100.688C44.0483 102.896 45.6942 104.729 47.7775 106.188C49.9025 107.646 52.2983 108.729 54.965 109.438C57.6733 110.104 60.4858 110.438 63.4025 110.438C67.6108 110.438 71.1733 109.854 74.09 108.688C77.0067 107.521 79.215 105.854 80.715 103.688C82.2567 101.521 83.0275 98.9583 83.0275 96ZM101.285 112.875C101.285 110.917 101.889 109.271 103.098 107.938C104.348 106.562 106.139 105.875 108.473 105.875C110.806 105.875 112.577 106.562 113.785 107.938C115.035 109.271 115.66 110.917 115.66 112.875C115.66 114.792 115.035 116.417 113.785 117.75C112.577 119.083 110.806 119.75 108.473 119.75C106.139 119.75 104.348 119.083 103.098 117.75C101.889 116.417 101.285 114.792 101.285 112.875Z" fill="black"/>
</svg>
